<?xml version="1.0" encoding="UTF-8"?>
<svg id="Ebene_1" data-name="Ebene 1" xmlns="http://www.w3.org/2000/svg" viewBox="0 0 568 211">
  <defs>
    <style>
      .cls-1 {
        fill: #fefdfd;
      }

      .cls-2 {
        fill: #c0a172;
      }

      .cls-3 {
        fill: #8b5607;
      }

      .cls-4 {
        fill: #dbb479;
      }

      .cls-5 {
        fill: #fefefd;
      }

      .cls-6 {
        fill: #d6ab6b;
      }

      .cls-7 {
        fill: #855206;
      }

      .cls-8 {
        fill: #332510;
      }

      .cls-9 {
        fill: #d4a156;
      }

      .cls-10 {
        fill: #d7a966;
      }

      .cls-11 {
        fill: #3f2b0c;
      }

      .cls-12 {
        fill: #cba164;
      }

      .cls-13 {
        fill: #d0a058;
      }

      .cls-14 {
        fill: #e59038;
      }

      .cls-15 {
        fill: #f7f0e6;
      }

      .cls-16 {
        fill: #f6efe5;
      }

      .cls-17 {
        fill: #f6efe3;
      }

      .cls-18 {
        fill: #714605;
      }

      .cls-19 {
        fill: #fefefe;
      }

      .cls-20 {
        fill: #e59139;
      }

      .cls-21 {
        fill: #8d5707;
      }

      .cls-22 {
        fill: #aa6909;
      }

      .cls-23 {
        fill: #fefdfc;
      }

      .cls-24 {
        fill: #281802;
      }

      .cls-25 {
        fill: #ad6b09;
      }
    </style>
  </defs>
  <path class="cls-19" d="M134,0h434v211H134l-2-.7V1.24l2-1.24Z"/>
  <path class="cls-9" d="M134,0v211H0V56c4.73-2.51,5.92,5.63,6.16,9.43l.7,2.04c5.71,1.73,9.28,4.89,10.71,9.48-.1-2.17.71-3.49,2.43-3.95,1.43-.3,2.63-.16,2.77,1.27l.69,17.44c2.42,12.1,15.22,14.12,25.65,11.64l1.89,1.65c.77.09,1.94.32,2,.87.25,2.2.32,16.98-.67,17.99-.33.33-.81.51-1.33.65,1.11.64,1.74,1.51.85,2.34-9.1,7.83-17.03,16.35-23.77,25.56-2.47,11.24-1.56,23.59-.48,35.02l-1.6,1.59,1.13,2.69c-20.77,11.45,21.49,21.68,23.74,6.03-2.64-1.77-4.26-3.68-4.88-5.73-.6-2.86-.53-6,.19-9.43l-.29-21.38c1.02-5.59,14.51-19.38,19.95-16.4,1.33.73,9.16,14.7,10.14,17.05l-.99,2.16-.93,1.09c4.58,10.18,12.8,19.89,20.93,26.91.21,1.5-.54,3.09-2.25,4.75,4.27,12.11,28.81,12.19,32.45.39-2.66-1.96-4.4-4-5.2-6.14-.52-2.14-.45-4.67.2-7.61-4.24-9.12-11.14-16.84-20.69-23.18-6.03-4.87-16.76-28.74-15.13-35.48.66-2.73,5.54-9.5,8.63-8.74,4.36,1.4,12.72-9.11,13.06-11.95-1.13-16.48-1.98-32.94-2.55-49.4l-1.92-3.65c-6.53-2.57-10.56-5.34-4.59-11.67.67-3.2-.27-3.95-3.23-4.49-11.78.14-14.44-2.33-14.16-14.06l-2.41-2.55c-9.37-4.05-14.43-10.12-15.19-18.23h72Z"/>
  <path class="cls-10" d="M62,0c2.62,2.28,2.67,5.53,4.44,8.06,3.49,5,14.54,7.57,15.51,13.49.47,2.87-1,7.67,1.45,9.55,4.39,3.37,17.38-1.64,15.61,8.36-.44,2.5-3.68,3.43-2.96,5.92.53,1.83,5.31,2.74,6.89,4.17,5.04,4.56,2.54,17.35,3.04,23.96.73,9.51,1.32,15.02,1.21,24.98-.02,1.89,1.13,3.62.8,5.93-.27,1.93-11.47,19.05-15,11.58l-1.34-1.75c1.12-3.75,2.73-7.26,4.84-10.52,9.28-7.64,6.14-13.7-2.21-19.79,1.33-3.73,3.18-7.44,5.53-11.13,2.9-16.5-9.96-24.15-24.87-22.82,1.24-22.25-13.18-45.66-37.89-43.29C2.82,9.99-7.76,51.71,20.23,70.45l-.23,2.55c-1.35,19.37-3.63,3.42-6.53.03-1.59-1.86-6.54-1.7-8.37-4.63-2.3-3.69.46-10.08-5.1-12.4V23C2.85,10.65,11.35,2.35,24,0h38Z"/>
  <path class="cls-9" d="M24,0c-5.15,4.1-11.23,5.42-15.9,10.6-3.7,4.11-4.01,9.14-8.1,12.4V0h24Z"/>
  <path class="cls-14" d="M486,122.5c1.36,11.55,8.6,19.03,20.33,13.33s8.82-15.07,11.16-25.84c2.03-9.36,3.42-19.99,15.78-17.73.63.12,2.4.56,2.59.87,2.1,3.34-9.12,33.39-4.77,39.77,4.57,3.06,10.75-10.18,12.09-13.23,2.68-6.05,5.55-20.76,8.34-24.66,1.18-1.66,3.05-2.64,5.04-2.96,8.66-1.39,7.91,2.15,7.31,9.31-1.89,22.39-11.28,77.98-23.06,95.93-5.27,8.03-16.26,15.08-25.76,9.15-15.71-9.82-.11-32.79,8.91-41.99,3.81-3.89,15.07-11.19,17.47-14.53,1.98-2.77,1.88-9.45,2.56-12.92l-6.96,10.53c-7.94,7.46-15.56,3.98-20.53-4.51-12.89,12.97-36.47,12.15-42.52-7.01-8,7.32-16.88,17.54-29.03,15.59-18.9-3.04-6.68-26.97-6.92-37.14-.04-1.62-.1-2.44-1.53-3.42-11.1,7.45-12.01,23.32-16.99,33.99-3.05,6.54-14.55,10.15-16.29,2.27-.48-2.16.88-9.04-1.7-8.27-1.07.32-17.72,11.7-18.47,12.54-2.03,2.26-6.15,23.58-8.03,28.97-2.78,7.94-9.83,23.95-18.28,26.72s-18.4.67-21.05-8.4c-3.9-13.32,9.33-28.85,18.31-37.34,3.41-3.22,12.04-8.6,14.35-11.4,1.16-1.41.65-2.48.66-4.08-9.36,8.94-18.66,6.14-27.36-1.93-7.45,8.58-24.17,11.74-28.65-1.06-3.86,1.29-6.67,4.84-10.99,6.48-6.85,2.59-13.42,2.98-20.28.31-26.01-10.13-4.25-56.72-2.73-76.31,2-25.64-17.52-10.55-24.5,2.49-11.45,21.39-13.16,47.67-17.98,71.02-2.92,6.63-15.15,6.75-16.45-1.56-2.44-15.69,8.08-49.12,9.93-66.96.5-4.8,2.3-16.51-3.69-18.27-16.35-4.8-27.63,27-31.01,38.57-4.29,14.69-4.84,33.81-9.22,46.78-1.42,4.2-3.91,6.37-8.58,6.28-6.75-.13-8.64-5.22-8.56-11.34.26-20.72,8.84-45.58,10.07-67.01.22-3.81,1.3-14.04-3.61-14.2-9.86-.33-17.71,16.09-22.03,16.49-1.47.14-3.69-1.03-4.18-2.44-3.71-10.64,15.93-27.45,25.57-29.1,20.71-3.55,21.39,11.23,19.13,27.14-.22,1.57-1.95,2.99.62,2.62,6.96-15.56,17.33-32.43,37.04-30.01,13.22,1.62,13.97,15.33,14.47,25.54.05,1.13-.64,2.74.99,2.47,2.92-11.61,14.06-26.16,26.6-27.9,42.2-5.89,14.72,56.66,13.38,77.37-1.18,18.24,11.12,18.89,22.06,8.06,3.3-7.56,3.19-31.54,10.02-35.98,3.12-2.03,11.12-2.86,11.98,1.98,1.03,5.74-4.48,21.64-5.01,29-.46,6.44-1.29,16.8,7.68,11.69,8.45-4.82,5.7-10.72,8.25-18.75,3.77-11.87,20.88-30.08,34.43-25.32,1.9.67,1.47,3.56,2.56,4.46.45.37,9.34-2.46,10.89,2.07,2.16,6.32-6.67,35.8-4.82,38.34,3.32-3.82,17.15-10.2,17.96-14.53-.29-21.24,5.94-73.84,24.09-86.91,9.8-7.05,21.2-3,22.85,9.02,2.63,19.18-8.54,35.9-19.52,50.31-6.9,9.05-15.21,12.7-12.39,26.1l7.16-13.32c3.47-5.35,10.69-13.33,17-14.99,27.18-7.14.27,40,9.83,44.86,2.62,1.33,7.51-2.6,9.53-4.51,1.11-1.04,9.06-10.07,9.26-10.75,1.07-3.59-.93-13.87.2-18.3-5.73-.19-10.77,1.93-11.1-5.48-.55-12.13,10.3-5.15,12.64-8.48.65-.92,2.36-11.96,3.2-14.8,3.44-11.65,16.27-43.57,33.22-32.7,12.95,8.31.94,40.83-9.96,48.46h14.5c3.27,0,3.26,7.65-.52,10.48-.6.45-5.18,2.52-5.48,2.52h-21.5c.5,5.9-.68,12.74,0,18.5Z"/>
  <path class="cls-20" d="M324.73,64.23c18.75-3.88,18.49,20.1,1.87,19.67-13.77-.36-12.97-17.38-1.87-19.67Z"/>
  <path class="cls-24" d="M20,73c-2.28-2.54-6.45-4.27-9.41-8.09C-5.92,43.66,3.03,14.09,28.78,6.28c27.61-8.37,50.88,15.48,47.23,42.72,15.49-3.91,29.08,8.04,25.77,24.28-.57,2.81-5.93,9.54-5.78,10.21.28,1.22,6.58,2.36,7.78,8.25,1.87,9.2-4.13,9.98-7.2,15.34-1.19,2.08-2.03,6.28-3.57,8.93s-6.14,6.36-6.83,9.74c-.8,3.89,7.79,24.27,10.37,28.22,6.28,9.6,33.66,22.55,23.46,37.04,2.2,4.3-4.3,5.86-8,6.14-3.01.23-12.98-3.34-11-7.14-1.09.56-2.18.32-3.23-.21-2.08-1.03-22.56-21.36-23.25-23.16-.4-1.05-.45-1.71.48-2.64-1.84-2.49-9.23-17.5-10.65-17.92-3.14-.92-15.68,11.09-16.33,14.44-1.44,7.54,2.41,26.05-2.02,31.48,2.11,3.31-3.44,5.14-6.29,5.63-5.49.94-15.91-2.38-13.71-8.63-1.68-3.78-1.51-26.26-1.04-31.54.41-4.54,1.77-7.88,4.52-11.48s21.52-19.96,21.52-21.48v-19.5c-9.55,2.06-19.96,2.44-26.53-5.97s-1.22-22.4-4.47-26.03Z"/>
  <path class="cls-22" d="M120,191c17.67,7.6-.42,16.94-11.5,17.08-8.99.11-25.59-10.1-13.5-16.08-.21-3.18,3.81-3.32,6-2,5.35,4.72,13.87,8.28,19,1Z"/>
  <path class="cls-25" d="M46,192c17.51,7.24-1.37,17.16-12.41,15.92-5.45-.61-17.22-6.11-14.08-12.91,1.49-3.23,6.46-2.57,6.49-6.02,3.24,7.32,14.79,9.38,20,3Z"/>
  <path class="cls-6" d="M75,164c4.7,6.37,19.61,20.36,26,26-1.45,1.71-4.31,1.17-6,2-1.65-.09-3.37-.18-4.71-1.3-3.93-3.25-12.65-15.12-15.72-19.77-1.24-1.88-5.19-8.97.43-6.93Z"/>
  <path class="cls-5" d="M375,104.01c-2.7,7.53-2.88,33.32-12.72,34.84-3.31.51-5.89-2.1-6.32-5.29-1.58-11.55,5.41-29.89,19.04-29.54Z"/>
  <path class="cls-1" d="M420.01,92c1.59-10.22,3.07-20.56,5.97-30.52.91-3.13,6.91-23.75,11.27-14.23,5.01,10.93-8.85,36.72-17.24,44.75Z"/>
  <path class="cls-23" d="M488.01,88c1.05-8.97,2.72-19.93,6.23-28.26,1.67-3.97,6.82-11.67,7.81-3.29,1.37,11.69-4.62,24.66-14.04,31.55Z"/>
  <path class="cls-1" d="M522.09,195.91c-4.36-12.53,8.49-23.42,16.9-30.91-1.65,8.05-3.63,17.52-7.83,24.66-2.18,3.72-3.95,7.13-9.07,6.25Z"/>
  <path class="cls-1" d="M364.99,166c-.38,6.51-6.19,26.82-12,29.49s-5.58-3.83-4.92-7.94c1.02-6.39,10.98-18.47,16.92-21.56Z"/>
  <path class="cls-17" d="M46,154c-.16.14-1.38-.39-2.08.62-2.67,3.89.3,24.12-1.14,30.67-1.68,7.64-11.52,5.78-12.73-1.84-.66-4.19-.65-26.93.4-30.49,2.02-6.79,19.91-20.92,25.54-26.46v-26c0-3.59-9.03.24-10.58.42-5.33.62-11.36.55-15.47-3.37-.85-.81-3.95-5.46-3.95-6.05v-15.5c1.55.58,9.6,1.68,9.96,2.04,1.44,1.47-2.83,14,3.14,12.48,2.72-.69,4.84-4.89,9.23-3.39.69.24,7.64,8.92,9.67,10.87,2.71,3.68,4.97,7.61,6.78,11.81l-.78,2.19c2.07-.59,4.3.29,6.67,2.66l2.61,1.16c5.97-.87,9.54.19,10.73,3.18-2.13,3.39-4.41,6.04-3.8,10.24.46,3.21,9.58,24.48,11.57,27.5,4.23,6.41,17.29,13.95,22.81,21.24.97,1.28.96,1.71,1.43,3.03.8,6.7-4.45,8.45-9.51,4.74l-9.49-7.74c-5.65-5.45-12.58-10.93-17.42-17.08-3.49-4.44-14.21-26.61-15.55-27.45-5.73-3.61-2.97,5.93-3.19,6.84-.18.77-3.79,4.39-4.85,5.7-3.06,3.1-6.4,5.76-10,8Z"/>
  <path class="cls-25" d="M50,11c4.24,1.54,4.86,2.66,8,5,3.47,3.4-2.61,4.67-5.91,4.68-3.26,1.97,7.72,3,8.65,2.62,8.15,2.03,8.89,10.31-.59,9.45-11.62-6.53-17.19,9.75-3.4,10.06,3.13,2.42,4.02,9.61,2.26,13.19,2.08,1.75,1.74,2.74-1,3,1.26,3.44-8.91,8.26-12.05,9.08-16.6,4.31-23.84-4.23-10.42-16.29,3.52-6.22-18.24-19.26-14.11-1.46,13.57,11.28-3.82,17.49-10.42,3.67-.88-2.36-1.69-3-2-6-2.08-11.17-.25-14.5,5.51-9.99-5.63-5.97-.97-9.29,5.62-9.31,1.35-.66,9.14-6.7,7.4-8.5-8.34-9.13,5.11-12.58,10.52-4.21,3.42-5.16,7.41-6.82,11.95-4.99Z"/>
  <path class="cls-7" d="M58,59c6.54-1.95,8.87-1.28,7,2-14.68,18.94-45.65,15.26-54-7,3.29,2.73,5.94,5.16,10.25,6.28,3.32.86,3.39-3.06,2.76-5.58-.26-1.06-3.6-1.75-4.5-3.72-2.35-5.16.9-12.57,6.89-11.99,2.44.24,11.28,7.1,11.62,9.56,1.09,7.76-8.88,6.43-7.02,15.95.77,3.95,9.6,2.76,13.06,2.05,2.94-.6,11.84-5.5,13.94-7.56Z"/>
  <path class="cls-15" d="M55.71,75.16c8.06-2.41,14.11,14.2,19.01,15.65,4.51,1.33,9.27-2.49,13.8-2.84,12.14-.93,13.52,11.79,3.76,13.8-6.72,1.39-17.05,1.88-23.34-1.21-4.92-2.42-24.96-21.9-13.23-25.41Z"/>
  <path class="cls-16" d="M88.99,61c-12.37,3.73-12.51-14.13.96-5.46,9.37,6.04,10.15,19.43.09,25-15.47,8.58-28.77-11.66-16.55-23.53,2.49,6.7,13.44,14.92,15.49,3.98Z"/>
  <path class="cls-21" d="M68,28c1.86,5.64-2.44,8.51-7.51,9.66l2.88,12.86-1.37,2.48c1.37,2.73-.39,4.52-3,3-2.02-2.93-.11-7.15-1.49-10.01-1.82-3.75-10.22.73-10.61-8.47-.16-3.89.79-6.1,4.53-7.58,6.2-2.47,7.04,1.57,12.08,1.15,7.01-.58-.35-5.14-3.24-5.85-3.03-.75-8.2.94-9.78-2.22-3.69-7.4,6.45-1.94,7.52-7.01,5.83,4.35,7.04,4.44,10,12Z"/>
  <path class="cls-21" d="M50,11c-7.84-2.77-6.72,7.18-12.55,7.01-1.78-.05-6.53-8.74-10.36-5.93-4.02,2.96,4.74,6.4,2.44,10.93-.26.51-8.03,7.25-8.55,7.48-2.46,1.08-8.91-.51-6.49,4.52.43.9,4.88,3.96.96,4.99-2.51.66-6.17-3.36-6.44-2.99.24,3.56-.37,7.51-.01,11-1.61-2.13-1.31-6.99-1.01-9.51C10.43,18.21,30.08,3.77,50,11Z"/>
  <path class="cls-4" d="M70,107c6.19,1.99,14.62.84,21,0,1.6,1.47-6.13,10.62-7,11.99-3.54-2.24-7.99-.23-12.05-1.45-1.88-.57-6.47-3.92-7.95-5.55.89-4.51,2.89-6.18,6-5Z"/>
  <path class="cls-3" d="M70,39c.63,5.01-1.84,16.01-8,14-1.31-4.01-2.16-11.91-3.99-15.26-.8-1.45-4.91-1.92-4.99-3.24-.25-4.18,5.7.89,6.01,1.05,2.26,1.18,10.02-3.86,8.97-7.55,2.11,5.38,1.47,5.65,2,11Z"/>
  <path class="cls-18" d="M65,61c.3-5.43-4.84,3.48-7-2,.27-.26.31-2.3,1-3,1.07-1.09,1.8-1.52,3-3,.88-1.09,2.53-1.69,3.83-3.67,2.22-3.39,2.68-6.78,4.17-10.33.02.22.98,1.1,1.04,2.42.37,9.07-.59,12.56-6.04,19.58Z"/>
  <path class="cls-12" d="M116,181c.95,2.64,1.39,4.15-.56,6.95-5.29,7.57-14.74-6.37-18.44-9.95,5.29,2,16.74,14.16,19,3Z"/>
  <path class="cls-13" d="M70,107c-3.46-.65-1.87,5.26-6,5-3.85-4.22-3.47-9.03-6-14,3.14,3.01,7.81,7.65,12,9Z"/>
  <path class="cls-2" d="M47.99,78.01c.73,4.85-3.41,4.12-6.99,3.99-.73-4.85,3.41-4.12,6.99-3.99Z"/>
  <path class="cls-11" d="M56,146c-2.47,3.02-5.86,8.04-10,8,3.19-2.75,6.26-6.68,10-8Z"/>
  <path class="cls-8" d="M75.51,67.01c1.78-.38,3.08,2.82,4.5,3.48,5.2,2.42,6.49-3.28,9.47-2.49,3.94,1.04-.01,5.92-2.91,7.07-10.16,4.02-15.84-7.04-11.06-8.06Z"/>
</svg>