<?xml version="1.0" encoding="UTF-8"?>
<svg id="Ebene_1" data-name="Ebene 1" xmlns="http://www.w3.org/2000/svg" viewBox="0 0 134.15 209.31">
  <defs>
    <style>
      .cls-1 {
        fill: #8c5607;
      }

      .cls-2 {
        fill: #f6f0e6;
      }

      .cls-3 {
        fill: #c0a172;
      }

      .cls-4 {
        fill: #d09e55;
      }

      .cls-5 {
        fill: #d6a965;
      }

      .cls-6 {
        fill: #dcb67d;
      }

      .cls-7 {
        fill: #d8ac6c;
      }

      .cls-8 {
        fill: #cea364;
      }

      .cls-9 {
        fill: #d6ab6b;
      }

      .cls-10 {
        fill: #855206;
      }

      .cls-11 {
        fill: #d5a865;
      }

      .cls-12 {
        fill: #332107;
      }

      .cls-13 {
        fill: #d4a969;
      }

      .cls-14 {
        fill: #724605;
      }

      .cls-15 {
        fill: #895507;
      }

      .cls-16 {
        fill: #d6aa69;
      }

      .cls-17 {
        fill: #d4a257;
      }

      .cls-18 {
        fill: #f7f0e6;
      }

      .cls-19 {
        fill: #d5a45a;
      }

      .cls-20 {
        fill: #f6efe3;
      }

      .cls-21 {
        fill: #efe3d1;
      }

      .cls-22 {
        fill: #d3a868;
      }

      .cls-23 {
        fill: #975d07;
      }

      .cls-24 {
        fill: #fefefe;
      }

      .cls-25 {
        fill: #d4a661;
      }

      .cls-26 {
        fill: #281902;
      }

      .cls-27 {
        fill: #aa6909;
      }

      .cls-28 {
        fill: #32230e;
      }

      .cls-29 {
        fill: #f5ede1;
      }

      .cls-30 {
        fill: #ad6b09;
      }
    </style>
  </defs>
  <path class="cls-17" d="M65.25,1.09c22.83-.56,45.67-.72,68.52-.5.57,69.64.49,139.21-.26,208.72H1C.21,158.51.15,107.69,1,56.88c3.53-4.43,5.35,3.4,5.25,6.89,1.68,2.84,4.56,5.13,8.65,6.85l2.8,4.43c-.04-1.77.44-2.77,2.37-3.23,2.48-.56,3.58,1.04,3.28,4.79-2.93,16.38,4.17,28.57,22.35,26.12l1.47,1.97c-1.45,2.62-4.54,3.68-9.27,3.18,3.3,1.25,3.65,3.63,2.41,6.68-4.27,10.33-9.62,20.25-16.03,29.75l-2.22.74c.78.21,1.98.56,2.01,1.14.2,4.1-.6,13.82-1.06,18.12-.03.25-.43.46-.95.66,1.53-1.44,1.33.74,1,.63-.67-.22-.39-13.02,2.01-13.08l2.16,1.03c-.61,10.81-.49,21.53.35,32.16l-1.5,1.68,1.14,2.68c-20.63,11.38,20.82,21.35,24.01,6.19l1.95-.91c2.56-3.91,3.06-5.46.06-9.69l.95-2.26c-5.1-7.73-7.9-17.39,3.14-20.26,2.88-7.53,5.25-13.54,13.34-6.22l1.59-.42c2.65-1.46,6.1,3.83,4.02,5.98l-.3,2.16c5.8,9.24,12.6,17.82,20.38,25.74.54,1.44.03,2.66-1.52,3.66-4.76,11.47,33.66,14.99,31.4.11l2.24-.79-.78-1.18c4.84-4.78-6.11-21.11-10.15-25.84-12-9.95-18.87-20.8-24.42-34.81-1.52-2.06-3.45-3.7-5.8-4.92-4.74-2.14,2.85-12.24,7.03-11.96,11.19-2.83,12.57-11.62,12.61-21.6.02-4.54-1.47-37.14-2.31-39.23l-1.22-2.71c-8.63-3.71-10.39-8.35-5.29-13.91,1.29-2.39-.37-2.68-2.55-3-12.57.11-15.38-1.71-15.17-14.65-3.34-3.26-7.26-5.92-11.77-7.96-3.59-1.98-8.49-8.94-3.42-10.52Z"/>
  <path class="cls-24" d="M1,209.31H0V0h134.15v209.31h-1V.99c-22.67.03-45.4-.03-68.07,0-14.81,2.74-30.17,1.78-45.05,0C14.17,3.15,8.2,3.54,2.15,2.11c1.42,6.35,1.01,12.66-1.15,18.82,2.01,11.78,1.82,24.11,0,35.88-.09,50.82.07,101.68,0,152.5Z"/>
  <path class="cls-26" d="M20.02,71.76c-4.57,2.03-10.09-5.76-12.62-9.55C.14,51.3.05,32.79,6.42,21.46,27.2-15.47,82.75,3.49,79.31,45.32c14.87-2.08,27.8,9.29,25.83,24.53-.44,3.43-1.34,7.89-5.02,8.89-.68,3.13.66,6.12,4,8.97,3.97.67,3.11,9.17,1.18,12.08-4.55,4.16-7.03,8.5-8.68,14.3l-2.51.53c-2.11,3.6-7.18,6.77-7.01,11.96l2.01.56c5.04,17.95,12.77,30.02,28.26,40.73,3.08,3.12,6.42,6.97,7.32,11.36.65,3.2.67,9.65-3.56,9.15,2.43,4.13-4.18,6.92-8.01,7.17-3.23.21-12.75-3.16-11.01-7.17-.9.39-2,.41-2.92.05-1.68-.65-22.29-21.08-23.26-23.12-.5-1.05-.76-1.81.15-2.85-.91-1.13-2.82-4.31-4-5.98-3.53-1.54-6.36-4.8-8.48-9.78-4.47,3.33-8.56,7.05-12.35,11.13l-2.19-.36c-.4,9.63-.73,19.27-1,28.91,2.62,1.43.73,4.86-2,3.99,1.84,3.29-3.42,4.99-6.23,5.53-5.6,1.08-15.88-2.08-13.8-8.52-3.33-7.48.41-26.04-1-34.89-2.41-.71-1.79-4.42,1-3.99,3.02-3.34,5.04-.43,3.7,3.37-.44,10.62-.34,21.12.31,31.51l2.62.1c5.31,6.77,8.68,1.71,8.52-4.93-.39-8.31-.24-16.59.44-24.83,5.68-4.79,11.33-9.68,16.96-14.68-.84-6.97.4-12.52,8.1-6.83l16.02,26.5,13.68,13.3c.96,1.32,1.53,2.79,1.75,4.4l9.28,7.44c5.24,4.76,9.59,2.31,9.74-4.45-2.25-.67-4.46-2.58-6.64-5.71-13.13-9.6-22.52-18.78-27.2-34.58-3.22-6.62-7.83-19.14,1.8-21.51-.77-.37-1.2-.94-1.21-1.75l5.49-7.86-11.39.79-1.91-2.15c-.95,3.11-7.24,1.07-7.01-1.99-5.33.6-7.08-.62-9.01-5.98-2.17,2.21-4.77-.24-4-2.99l-2.09.62c-2.65-5.71-5.56-8.54-8.75-8.49-10.13,8.12-12.71.31-10.92-9.43-4.74-.02-7.5-1.24-8.28-3.64,2.89-.28,2.43,13.15,2,14.08-.34.73-1.22,1.08-2,1.37l2.15-.06c4.87,8.13,13.35,10.02,25.45,5.68l1.43,1.85c.86.24.84.58,0,1,.98,8.5.72,17.06.25,25.59-2.4,4.48-7.74,4.76-4.4-.68.74-6.58.97-13.33.14-19.93-.61,2.67-2.22,3.24-4,1-7.5.07-12.61,1.07-18.94-3.57-12.65-9.28-3.87-24.64-8.09-29.32Z"/>
  <path class="cls-5" d="M65.07,1c-1.75,10.2,12.63,10.29,16.91,17.56,1.88,3.2-.84,10.14,2.31,12.15,4.75,3.02,24.53-2.79,11.84,12.62,1.89,3.27,6.38,3.96,8.55,6.45,3.73,4.29,1.88,17.32,2.43,23.5.68,7.62,1.13,9.68.97,17.89-.16,8.75,2.74,10.58-2.99,17.96-2,2.58-8.24,10.29-10.99,5.51,1.54-2.64,2.38-6.83,3.57-8.9,3.86-6.7,10.26-6.6,6.44-18.01l-5.39-5.77,1.38-3.2c.06-2.45,2.33-4.5,2.78-6.7,3.35-16.14-10.33-28.13-25.8-24.2,1.85-17.33-4.67-30.97-19.73-39.66C21.29-12.66-16.99,36.85,15,68.28c1.42,1.39,4.02,2.38,5.02,3.48-1.75,17.62-2.46,5.82-6.12.61-2.17-3.1-7.63-2.13-9.44-7.54-.82-2.45.36-8.34-3.46-8.02.02-11.94-.06-23.94,0-35.88C3.98,10.74,9.58,3.85,20.02,1c15-.08,30.05.02,45.05,0Z"/>
  <path class="cls-25" d="M51.06,103.66c.67,7.53.62,15.02-.16,22.49-8.25,6.67-15.72,13.99-22.39,21.96l-2.47.41c-.44.93-.75,2.84-1,3.99-1.03,4.76-1.33,8.87-1.01,13.95-.64.07-1.99-1.33-1.99-1.49v-19.93c0-3.36,10.51-17.6,12.55-21.4.92-1.72,4.93-12.1,4.38-12.85s-5.75-2.06-4.91-5.11c4.86.26,8.46.12,13.01-1,1.34-.33,2.56-1.1,4-1Z"/>
  <path class="cls-27" d="M121.13,188.38c1.48-2.7,8.21,2.19,7.01,4.98-1.22,3.36,1.97,5.08-3.67,8.8-7.22,4.76-18.45,5.5-26.07,1.37-5.51-2.99-9.61-9.57-2.3-13.16-.21-3.17,3.81-3.31,6.01-1.99,5.97,5.23,13.89,8.41,19.02,0Z"/>
  <path class="cls-11" d="M87.1,126.58c1.77-1.44,2.55-.66,4.14.31,5.08,3.1,7.75,14.47,10.9,19.87,5.33,9.13,15.66,15.11,21.03,24.14,2.61,4.38,4.59,10.74,7.76,15.22,1.29,6.39-2.36,6.05-2.79,7.24l-7.01-4.98c9.05-14.83-17.02-26.05-23.48-35.93-2.05-3.13-10.45-22.78-10.55-25.87Z"/>
  <path class="cls-30" d="M46.05,190.38c2.79-2.67,11.19,1.53,7.01,4.98.97,9.05-14.19,11.74-21.07,10.51-5.18-.93-15.4-6.12-12.45-12.49,1.49-3.22,6.47-2.56,6.5-6,3.33,7.47,14.37,9.17,20.02,2.99Z"/>
  <path class="cls-13" d="M49.05,157.48c.99-2.02,12.83-12.73,14.54-13.01s1.26.46,1.8,1.26c2.29,3.39,4.14,7.17,6.68,10.75-.13,5.58-5.85-.65-6.7-.89-4.52-1.27-4.41,6.63-6.76,8.91-4.63,4.5-9.55-1.04-7.5,11.35.45,2.73,2.67,4.74,2.94,7.53-2.54.85-4.21-1.14-5.01-5.98-.92-6.54-1.01-13.35,0-19.93Z"/>
  <path class="cls-9" d="M76.08,162.47c5.45,6.74,19.27,20,26.03,25.91-1.45,1.7-4.32,1.16-6.01,1.99-4.58.39-6.06-4.46-8.48-7.04-3.52-3.76-9.8-10.13-12.21-14.72-.73-1.4-3.5-6.62.67-6.15Z"/>
  <path class="cls-16" d="M54.06,183.4c2.64,4.19,6.2,9.99-1,11.96-.46-4.29-4.39-2.97-7.01-4.98.15-.16,1.84-3.56,2-3.99.42-3.08.76-6.07,1-8.97,1.42,1.38,4.05,4.46,5.01,5.98Z"/>
  <path class="cls-19" d="M20.02,1c-2.9,3.61-9.1,6.1-12.03,9.45-2.62,3-3.09,9.55-6.99,10.48.03-6.63-.02-13.31,0-19.94,6.33-.02,12.7.04,19.03,0Z"/>
  <path class="cls-20" d="M61.07,106.65c2.47-.53,3,.84,2,2.99,3.23-.18,9.02,2.73,10.01,5.98l3.48.33c.71-2.83,9.38-1.97,8.54,1.66-2.13,3.38-4.41,6.02-3.81,10.2.46,3.2,9.59,24.4,11.58,27.41,4.23,6.39,17.31,13.9,22.83,21.17.97,1.28.96,1.71,1.43,3.02.55,6.8-4.38,8.5-9.54,4.66l-9.48-7.65c-5.69-5.45-11.62-10.68-17-16.47l-16.16-26.77-3.37-1.61c-3.31,2.14.2,5.25-.97,7.93-1.24,2.83-13.64,12.07-16.9,14.2-2.67,6.53,2.86,32.29-4.36,34.49-4.88,1.49-6.69-1.49-9.31-4.8-.35-11.42-.63-22.78-.82-34.1.54-3.02,18.91-20.78,22.21-22.78,1.42.22,2.97-.42,4.64-1.92.54-6.6.76-13.23.67-19.91,2.32-.82,3.71-.53,4.33,1.97Z"/>
  <path class="cls-30" d="M49.05,9.97c5.29,1.72,4.94,2.06,9.01,4.98,3.48,3.38-2.61,4.66-5.92,4.66-3.26,1.96,7.73,2.99,8.66,2.61,13,4.7,6.57,13.63-4.88,7.87-7.75-.75-9.33,8.54-4.34,10.48,8.77.12,10.36,7.05,7.48,14.24,2.08,1.74,1.75,2.75-1,2.99,1.2,3.45-8.88,8.23-12.05,9.05-16.62,4.29-23.89-4.19-10.45-16.23,3.53-6.2-18.26-19.2-14.12-1.45,13.71,11.28-4.36,17.08-10.43,3.65-1.05-2.45-1.44-3.23-2-5.98l-.41-7.64c-.38-6.01,1.2-5.77,5.52-2.63-3.89-5.39-1.61-8.67,6.86-9.84,1.78-2.23,3.46-3.17,5.05-2.82,1.01-1.38,2.01-2.31,3-2.8-3.21-9.84,2.3-9.4,9.58-6.19,3.06-4.54,6.54-6.19,10.45-4.95Z"/>
  <path class="cls-10" d="M58.06,57.81c6.69-1.95,9.02-1.29,7.01,1.99-16.43,18.42-44.18,16.01-54.06-6.98,3.29,2.72,5.94,5.15,10.26,6.26,3.33.86,3.4-3.05,2.77-5.56-.26-1.05-3.61-1.74-4.51-3.71-2.35-5.14.9-12.53,6.89-11.95,2.44.23,11.29,7.08,11.64,9.53,1.09,7.74-8.89,6.4-7.03,15.89.77,3.94,9.61,2.75,13.07,2.05,3.03-.62,11.73-5.43,13.96-7.53Z"/>
  <path class="cls-18" d="M55.77,73.92c1.22-.36,2.34-.23,3.56.02,4.08.86,13.73,14.77,16.47,15.58,4.51,1.33,9.28-2.48,13.81-2.83,12.15-.92,13.55,11.75,3.76,13.76-7.65,1.57-19.4,1.84-26.21-2.36-2.15-1.33-12.14-11.47-13.3-13.66-1.76-3.3-2.68-9.15,1.9-10.51Z"/>
  <path class="cls-1" d="M58.06,14.95c10.38,7.46,11.81,10.43,13.01,22.92.74,3.4-.23,6.29-1.93,9.16-1.57,2.65-7.06,9.01-10.08,7.79-1.56-2.92-.26-7.42-1.49-9.98-1.79-3.73-10.23.74-10.62-8.44-.16-3.88.79-6.08,4.53-7.56,6.21-2.46,7.05,1.56,12.09,1.15,7.02-.58-.35-5.12-3.25-5.83-3.04-.75-8.21.94-9.79-2.22-3.7-7.38,6.46-1.94,7.53-6.99Z"/>
  <path class="cls-2" d="M90.09,59.81c-12.39,3.72-12.53-14.09.96-5.44,9.38,6.02,10.16,19.36.09,24.92-15.49,8.55-28.81-11.62-16.57-23.45,2.49,6.68,13.46,14.87,15.51,3.97Z"/>
  <path class="cls-29" d="M55.06,97.68c-8.27.7-18.02,5.25-25.08-1.45-.85-.8-3.96-5.44-3.96-6.03v-15.45c1.55.58,9.61,1.67,9.97,2.03,1.45,1.46-2.83,13.95,3.15,12.44,2.72-.69,4.85-4.88,9.24-3.38,1.66.57,5.96,8,7.68,9.84,1.99,2.05,1.89,2.49-1,1.99Z"/>
  <path class="cls-15" d="M26.03,23.92c-3.01,5.05-4.48,4.97-9.46,6.03-7.02,1.5,3.8,7.71-1.07,8.92-2.1.52-6.13-3.47-6.48-2.99v10.96c-2.74-13.24,1.28-23.59,12-31.9,4.75.4,12.12,5.31,5.01,8.97Z"/>
  <path class="cls-12" d="M56.06,124.59c-5.33,6.27-23.38,19.75-25.59,26.85-2.44,7.85.89,23.23-.44,31.95-1.66-1.04-1-3.78-1.02-5.47-.1-8.06.92-18.32.07-25.98-.25-2.26-.34-3.45-3.06-3.44,4.19-8.91,17.91-17.39,24.51-24.94l.52-19.92c1.75,4.48,1.11,10.66,1.05,15.5-.03,2-1.13,5.21-1.05,5.92.16,1.43,1.97,1.7,3.05.06,2.15-3.25.61-20.94.95-26.46,3.25.79,4.18,6.2,1.54,7.77.24,6.08.06,12.13-.54,18.15Z"/>
  <path class="cls-23" d="M49.05,9.97c-5.26-1.56-6.09,5.85-9.74,6.83s-9.06-5.46-9.32-.38c-.19,3.74,3.54,6.28-3.97,7.5,4.1-6.88-2.2-3.16-5.01-8.97,8.92-6.9,17.01-8.56,28.03-4.98Z"/>
  <path class="cls-6" d="M76.08,106.65c5.32.61,10.76-.39,16.01-.99,1.61,1.46-6.14,10.58-7,11.96-3.88-1.8-7.33-.59-12.01-1.99,1.35-1.9,1.55-4.51.6-7.81l2.4-1.16Z"/>
  <path class="cls-14" d="M71.08,37.88c.02.22.99,1.1,1.04,2.41.43,10.65-.55,12.23-7.04,19.52.3-5.41-4.84,3.47-7.01-1.99.26-.24.31-2.29,1-2.99,5.14-5.26,10.53-9.28,12.01-16.94Z"/>
  <path class="cls-7" d="M69.08,104.66c1.39.51,5.78,1.85,7.01,1.99-1.55,3.2,1.19,5.7,1,8.97h-4c-3.78-1.13-7.34-3.1-10.01-5.98.3-4.49.5-7.11,6.01-4.98Z"/>
  <path class="cls-8" d="M117.13,179.41c1.57,4.37.02,9.5-5.41,8.97-4.08-.4-10.34-8.83-13.61-11.96,5.53,1.69,16.51,14.33,19.02,2.99Z"/>
  <path class="cls-21" d="M60.07,98.68c2.91,3.16,3.25,5.82,1,7.97l-4.01-.49c-.75,5.14,1.5,14.26-.99,18.43-.61-8.42,1.29-17.8-1-25.91.02-.33-.05-.68,0-1s1.09-1.23,1-1.99c.91.98,2.85,2.05,4,2.99Z"/>
  <path class="cls-4" d="M69.08,104.66c-5.92-1.02-2.12,5.67-6.01,4.98-1.31-1.41-1.33-.58-2-2.99-.58-2.1-.63-5.66-1-7.97,3.16,2.55,4.71,4.39,9.01,5.98Z"/>
  <path class="cls-17" d="M49.05,177.42c-.13,3.82.38,5.27-1,8.97,1.16-7.51-2-22.75,1-28.91-.17,6.62.23,13.32,0,19.93Z"/>
  <path class="cls-3" d="M48.05,76.75c.73,4.84-3.41,4.11-7,3.98-.73-4.84,3.41-4.11,7-3.98Z"/>
  <path class="cls-22" d="M104.11,87.71c-2.72-1.7-4.46-4.82-8.01-5l4-3.97c-.08,3.39,2.96,5.85,4,8.97Z"/>
  <path class="cls-28" d="M76.6,65.79c1.78-.38,3.08,2.81,4.51,3.47,5.21,2.42,6.5-3.27,9.48-2.48,3.94,1.04-.01,5.9-2.91,7.04-10.17,4.01-15.86-7.01-11.07-8.04Z"/>
</svg>